<svg width="73" height="72" viewBox="0 0 73 72" fill="none" xmlns="http://www.w3.org/2000/svg">
<path opacity="0.4" d="M63.8644 25.7401V46.26C63.8644 49.62 62.0644 52.7401 59.1544 54.4501L41.3344 64.7401C38.4244 66.4201 34.8243 66.4201 31.8843 64.7401L14.0643 54.4501C11.1543 52.7701 9.35425 49.65 9.35425 46.26V25.7401C9.35425 22.3801 11.1543 19.26 14.0643 17.55L31.8843 7.26C34.7943 5.58 38.3944 5.58 41.3344 7.26L59.1544 17.55C62.0644 19.26 63.8644 22.3501 63.8644 25.7401Z" fill="#F3C703"/>
<path d="M36.6245 41.25C35.3945 41.25 34.3745 40.23 34.3745 39V23.25C34.3745 22.02 35.3945 21 36.6245 21C37.8545 21 38.8745 22.02 38.8745 23.25V39C38.8745 40.23 37.8545 41.25 36.6245 41.25Z" fill="#F3C703"/>
<path d="M36.6245 51.7499C36.2345 51.7499 35.8445 51.6599 35.4845 51.5099C35.0945 51.3599 34.7944 51.15 34.4944 50.88C34.2244 50.58 34.0145 50.25 33.8345 49.89C33.6845 49.53 33.6245 49.1399 33.6245 48.7499C33.6245 47.9699 33.9244 47.1899 34.4944 46.6199C34.7944 46.3499 35.0945 46.14 35.4845 45.99C36.5945 45.51 37.9146 45.7799 38.7546 46.6199C39.0246 46.9199 39.2345 47.2199 39.3845 47.6099C39.5345 47.9699 39.6245 48.3599 39.6245 48.7499C39.6245 49.1399 39.5345 49.53 39.3845 49.89C39.2345 50.25 39.0246 50.58 38.7546 50.88C38.1846 51.45 37.4345 51.7499 36.6245 51.7499Z" fill="#F3C703"/>
</svg>
