<svg width="21" height="34" viewBox="0 0 21 34" fill="none" xmlns="http://www.w3.org/2000/svg">
<path d="M15.75 9.40242C17.3467 10.3237 18.6726 11.6494 19.5942 13.2459C20.5158 14.8424 21.0007 16.6535 21 18.4969V30.4969H14.745C14.4351 31.3752 13.8604 32.1358 13.1001 32.6737C12.3398 33.2117 11.4314 33.5006 10.5 33.5006C9.56863 33.5006 8.66019 33.2117 7.8999 32.6737C7.13961 32.1358 6.5649 31.3752 6.255 30.4969H6.99497e-07V18.4969C-0.000672233 16.6535 0.484198 14.8424 1.40582 13.2459C2.32745 11.6494 3.65331 10.3237 5.25 9.40242C5.00353 8.95973 4.81451 8.48742 4.6875 7.99692H6.99497e-07V4.99692H4.689C5.02266 3.70956 5.77436 2.56943 6.82611 1.75553C7.87786 0.941616 9.1701 0.5 10.5 0.5C11.8299 0.5 13.1221 0.941616 14.1739 1.75553C15.2256 2.56943 15.9773 3.70956 16.311 4.99692H21V7.99692H16.311C16.1842 8.48705 15.9963 8.95926 15.7515 9.40242H15.75ZM10.5 19.9969C10.1022 19.9969 9.72064 20.155 9.43934 20.4363C9.15804 20.7176 9 21.0991 9 21.4969V28.9969C9 29.3947 9.15804 29.7763 9.43934 30.0576C9.72064 30.3389 10.1022 30.4969 10.5 30.4969C10.8978 30.4969 11.2794 30.3389 11.5607 30.0576C11.842 29.7763 12 29.3947 12 28.9969V21.4969C12 21.0991 11.842 20.7176 11.5607 20.4363C11.2794 20.155 10.8978 19.9969 10.5 19.9969ZM10.5 9.49692C11.2957 9.49692 12.0587 9.18085 12.6213 8.61824C13.1839 8.05563 13.5 7.29257 13.5 6.49692C13.5 5.70127 13.1839 4.93821 12.6213 4.3756C12.0587 3.81299 11.2957 3.49692 10.5 3.49692C9.70435 3.49692 8.94129 3.81299 8.37868 4.3756C7.81607 4.93821 7.5 5.70127 7.5 6.49692C7.5 7.29257 7.81607 8.05563 8.37868 8.61824C8.94129 9.18085 9.70435 9.49692 10.5 9.49692Z" fill="#33BC51"/>
</svg>
