<svg width="25" height="24" viewBox="0 0 25 24" fill="none" xmlns="http://www.w3.org/2000/svg">
<path d="M16.2044 12C16.2044 13.98 14.6044 15.58 12.6244 15.58C10.6444 15.58 9.04443 13.98 9.04443 12C9.04443 10.02 10.6444 8.41998 12.6244 8.41998C14.6044 8.41998 16.2044 10.02 16.2044 12Z" stroke="#33BC51" stroke-width="1.5" stroke-linecap="round" stroke-linejoin="round"/>
<path d="M12.6246 20.27C16.1546 20.27 19.4446 18.19 21.7346 14.59C22.6346 13.18 22.6346 10.81 21.7346 9.39997C19.4446 5.79997 16.1546 3.71997 12.6246 3.71997C9.0946 3.71997 5.8046 5.79997 3.5146 9.39997C2.6146 10.81 2.6146 13.18 3.5146 14.59C5.8046 18.19 9.0946 20.27 12.6246 20.27Z" stroke="#33BC51" stroke-width="1.5" stroke-linecap="round" stroke-linejoin="round"/>
</svg>
