<svg width="25" height="24" viewBox="0 0 25 24" fill="none" xmlns="http://www.w3.org/2000/svg">
<path opacity="0.4" d="M21.8746 9.14998C21.3846 8.36998 20.8246 7.66998 20.2446 7.03998L16.4746 10.81C16.5946 11.18 16.6646 11.58 16.6646 12C16.6646 14.24 14.8546 16.04 12.6246 16.04C12.2046 16.04 11.8046 15.97 11.4346 15.85L7.97461 19.31C9.43461 20.13 11.0146 20.56 12.6246 20.56C14.4046 20.56 16.1346 20.04 17.7146 19.07C19.2946 18.09 20.7146 16.66 21.8746 14.84C22.8746 13.28 22.8746 10.72 21.8746 9.14998Z" fill="#33BC51"/>
<path d="M14.6444 9.98001L10.6044 14.02C10.0944 13.5 9.7644 12.78 9.7644 12C9.7644 10.43 11.0444 9.14001 12.6244 9.14001C13.4044 9.14001 14.1244 9.47001 14.6444 9.98001Z" fill="#33BC51"/>
<path opacity="0.4" d="M18.8745 5.74999L15.4845 9.13999C14.7545 8.39999 13.7445 7.95999 12.6245 7.95999C10.3845 7.95999 8.58451 9.76999 8.58451 12C8.58451 13.12 9.03451 14.13 9.76451 14.86L6.38451 18.25H6.37451C5.26451 17.35 4.24451 16.2 3.37451 14.84C2.37451 13.27 2.37451 10.72 3.37451 9.14999C4.53451 7.32999 5.95451 5.89999 7.53451 4.91999C9.11451 3.95999 10.8445 3.42999 12.6245 3.42999C14.8545 3.42999 17.0145 4.24999 18.8745 5.74999Z" fill="#33BC51"/>
<path d="M15.4846 12C15.4846 13.57 14.2046 14.86 12.6246 14.86C12.5646 14.86 12.5146 14.86 12.4546 14.84L15.4646 11.83C15.4846 11.89 15.4846 11.94 15.4846 12Z" fill="#33BC51"/>
<path d="M22.3944 2.23C22.0944 1.93 21.6044 1.93 21.3044 2.23L2.85439 20.69C2.55439 20.99 2.55439 21.48 2.85439 21.78C3.00439 21.92 3.19439 22 3.39439 22C3.59439 22 3.78439 21.92 3.93439 21.77L22.3944 3.31C22.7044 3.01 22.7044 2.53 22.3944 2.23Z" fill="#33BC51"/>
</svg>
