<svg width="25" height="24" viewBox="0 0 25 24" fill="none" xmlns="http://www.w3.org/2000/svg">
<path d="M15.6245 22C15.2145 22 14.8745 21.66 14.8745 21.25V2.75C14.8745 2.34 15.2145 2 15.6245 2C16.0345 2 16.3745 2.34 16.3745 2.75V21.25C16.3745 21.66 16.0345 22 15.6245 22Z" fill="#33BC51"/>
<path opacity="0.4" d="M7.12451 20H13.1245V4H7.12451C4.91451 4 3.12451 5.79 3.12451 8V16C3.12451 18.21 4.91451 20 7.12451 20Z" fill="#33BC51"/>
<path opacity="0.4" d="M18.6245 20H15.6245V4H18.6245C20.8345 4 22.6245 5.79 22.6245 8V16C22.6245 18.21 20.8345 20 18.6245 20Z" fill="#33BC51"/>
<path d="M6.37451 13C6.24451 13 6.11451 12.97 5.99451 12.92C5.87451 12.87 5.76451 12.8 5.66451 12.71C5.57451 12.61 5.50451 12.5 5.44451 12.38C5.39451 12.26 5.37451 12.13 5.37451 12C5.37451 11.74 5.48451 11.48 5.66451 11.29C5.71451 11.25 5.76451 11.21 5.81451 11.17C5.87451 11.13 5.93451 11.1 5.99451 11.08C6.05451 11.05 6.11451 11.03 6.17451 11.02C6.51451 10.95 6.85451 11.06 7.08451 11.29C7.26451 11.48 7.37451 11.74 7.37451 12C7.37451 12.13 7.34451 12.26 7.29451 12.38C7.24451 12.5 7.17451 12.61 7.08451 12.71C6.98451 12.8 6.87451 12.87 6.75451 12.92C6.63451 12.97 6.50451 13 6.37451 13Z" fill="#33BC51"/>
<path d="M9.87451 13C9.74451 13 9.61451 12.97 9.49451 12.92C9.37451 12.87 9.26451 12.8 9.16451 12.71C8.97451 12.52 8.87451 12.27 8.87451 12C8.87451 11.87 8.90451 11.74 8.95451 11.62C9.00451 11.49 9.07451 11.39 9.16451 11.29C9.53451 10.92 10.2045 10.92 10.5845 11.29C10.7645 11.48 10.8745 11.74 10.8745 12C10.8745 12.13 10.8445 12.26 10.7945 12.38C10.7445 12.5 10.6745 12.61 10.5845 12.71C10.4845 12.8 10.3745 12.87 10.2545 12.92C10.1345 12.97 10.0045 13 9.87451 13Z" fill="#33BC51"/>
</svg>
