<svg width="108" height="87" viewBox="0 0 108 87" fill="none" xmlns="http://www.w3.org/2000/svg">
<circle opacity="0.4" cx="88.5" cy="50.5" r="19.5" fill="#ACE4B8"/>
<circle opacity="0.4" cx="39.5" cy="39.5" r="39.5" fill="#ACE4B8"/>
<path d="M73.25 39V45.3C71.93 45.12 70.43 45.03 68.75 45V39C68.75 29.55 66.08 23.25 53 23.25C39.92 23.25 37.25 29.55 37.25 39V45C35.57 45.03 34.07 45.12 32.75 45.3V39C32.75 30.3 34.85 18.75 53 18.75C71.15 18.75 73.25 30.3 73.25 39Z" fill="#F3C703"/>
<path opacity="0.4" d="M83 60V66C83 78 80 81 68 81H38C26 81 23 78 23 66V60C23 49.98 25.1 46.23 32.75 45.3C34.07 45.12 35.57 45.03 37.25 45H68.75C70.43 45.03 71.93 45.12 73.25 45.3C80.9 46.23 83 49.98 83 60Z" fill="#F3C703"/>
<path d="M41 66C40.61 66 40.22 65.91 39.86 65.76C39.47 65.61 39.17 65.4 38.87 65.13C38.33 64.56 38 63.78 38 63C38 62.61 38.09 62.2199 38.24 61.8599C38.39 61.4999 38.6 61.1699 38.87 60.8699C39.17 60.5999 39.47 60.39 39.86 60.24C40.97 59.76 42.29 60.0299 43.13 60.8699C43.4 61.1699 43.61 61.4999 43.76 61.8599C43.91 62.2199 44 62.61 44 63C44 63.78 43.67 64.56 43.13 65.13C42.56 65.67 41.78 66 41 66Z" fill="#F3C703"/>
<path d="M53 65.9999C52.19 65.9999 51.44 65.6699 50.87 65.1299C50.6 64.8299 50.39 64.4999 50.24 64.1399C50.09 63.7799 50 63.3899 50 62.9999C50 62.1899 50.33 61.4399 50.87 60.8699C51.98 59.7599 53.99 59.7599 55.13 60.8699C55.67 61.4399 56 62.1899 56 62.9999C56 63.3899 55.91 63.7799 55.76 64.1399C55.61 64.4999 55.4 64.8299 55.13 65.1299C54.56 65.6699 53.78 65.9999 53 65.9999Z" fill="#F3C703"/>
<path d="M65 65.9999C64.22 65.9999 63.44 65.6699 62.87 65.1299C62.33 64.5599 62 63.8099 62 62.9999C62 62.1899 62.33 61.4399 62.87 60.8699C64.01 59.7599 66.02 59.7599 67.13 60.8699C67.25 61.0199 67.37 61.1699 67.49 61.3499C67.61 61.4999 67.7 61.6799 67.76 61.8599C67.85 62.0399 67.91 62.2199 67.94 62.3999C67.97 62.6099 68 62.8199 68 62.9999C68 63.7799 67.67 64.5599 67.13 65.1299C66.56 65.6699 65.78 65.9999 65 65.9999Z" fill="#F3C703"/>
</svg>
