<svg width="232" height="191" viewBox="0 0 232 191" fill="none" xmlns="http://www.w3.org/2000/svg">
<path opacity="0.8" d="M187.547 84.3914C187.547 121.066 160.922 155.416 124.547 165.466C122.072 166.141 119.372 166.141 116.897 165.466C80.5219 155.416 53.897 121.066 53.897 84.3914V51.4666C53.897 45.3166 58.5471 38.3416 64.3221 36.0166L106.097 18.9166C115.472 15.0916 126.047 15.0916 135.422 18.9166L177.197 36.0166C182.897 38.3416 187.622 45.3166 187.622 51.4666L187.547 84.3914Z" fill="white"/>
<path d="M139.472 79.7412C139.472 69.3912 131.072 60.9912 120.722 60.9912C110.372 60.9912 101.972 69.3912 101.972 79.7412C101.972 88.1412 107.522 95.1162 115.097 97.5162V117.241C115.097 120.316 117.647 122.866 120.722 122.866C123.797 122.866 126.347 120.316 126.347 117.241V97.5162C133.922 95.1162 139.472 88.1412 139.472 79.7412Z" fill="#09A12B"/>
<path opacity="0.4" d="M206.461 134.506C204.965 134.163 203.331 134.673 202.015 135.868L195.183 142.067C194.734 142.475 194.151 142.67 193.565 142.594C192.963 142.533 192.423 142.172 192.051 141.628L187.941 135.392C186.826 133.426 184.08 132.576 181.948 133.508C179.917 134.318 178.83 136.702 179.096 138.435L181.546 155.263L181.648 155.778L195.014 170.507L195.491 170.53L204.477 169.819C205.812 169.884 207.743 168.831 208.859 167.818L215.358 161.921C217.59 159.895 218.313 156.171 216.953 153.668L209.726 137.468C209.086 135.892 207.926 134.848 206.461 134.506Z" fill="#09A22B"/>
<path d="M173.55 153.283L171.834 154.84C169.251 157.184 169.109 159.136 171.346 161.602L186.557 178.364C188.795 180.83 190.752 180.877 193.335 178.534L195.051 176.976C197.634 174.632 197.776 172.68 195.538 170.214L180.327 153.452C178.09 150.986 176.133 150.939 173.55 153.283Z" fill="#09A22B"/>
<path opacity="0.4" d="M39.1599 49.9188C38.0375 49.6613 36.8124 50.0439 35.8251 50.9398L30.7015 55.5893C30.3641 55.8954 29.927 56.0415 29.4877 55.9843C29.036 55.9385 28.631 55.668 28.3521 55.2602L25.2698 50.583C24.4334 49.1089 22.3737 48.4713 20.7748 49.1703C19.2521 49.7774 18.4366 51.5656 18.6363 52.8655L20.4731 65.4865L20.5499 65.8725L30.5747 76.9195L30.9323 76.9368L37.672 76.4037C38.6732 76.4522 40.1212 75.6623 40.9585 74.9025L45.8321 70.4798C47.5067 68.9602 48.0484 66.1671 47.0284 64.2899L41.6087 52.1402C41.1285 50.9581 40.2585 50.1752 39.1599 49.9188Z" fill="#09A22B"/>
<path d="M14.4764 64.0011L13.1892 65.1692C11.2523 66.9269 11.1454 68.3912 12.8237 70.2407L24.232 82.8122C25.9104 84.6617 27.3781 84.6971 29.315 82.9394L30.6022 81.7713C32.5392 80.0136 32.646 78.5493 30.9677 76.6998L19.5594 64.1283C17.881 62.2788 16.4133 62.2434 14.4764 64.0011Z" fill="#09A22B"/>
</svg>
