<svg width="25" height="24" viewBox="0 0 25 24" fill="none" xmlns="http://www.w3.org/2000/svg">
<path opacity="0.4" d="M17.6245 20.5H7.62451C4.62451 20.5 2.62451 19 2.62451 15.5V8.5C2.62451 5 4.62451 3.5 7.62451 3.5H17.6245C20.6245 3.5 22.6245 5 22.6245 8.5V15.5C22.6245 19 20.6245 20.5 17.6245 20.5Z" fill="#33BC51"/>
<path fill-rule="evenodd" clip-rule="evenodd" d="M18.2106 8.53196C18.4691 8.85561 18.4163 9.32754 18.0926 9.58605L14.9617 12.0868C13.6583 13.1244 11.5808 13.1244 10.2774 12.0868L10.2756 12.0853L7.15556 9.58531C6.83232 9.3263 6.78024 8.85429 7.03925 8.53105C7.29826 8.2078 7.77027 8.15573 8.09352 8.41474L11.2125 10.914C11.9691 11.5155 13.2707 11.5154 14.027 10.9135C14.0272 10.9135 14.0269 10.9136 14.027 10.9135L17.1565 8.41401C17.4801 8.15551 17.9521 8.20832 18.2106 8.53196Z" fill="#33BC51"/>
<path d="M23.2844 21.47L22.5444 20.73C22.9244 20.15 23.1544 19.45 23.1544 18.7C23.1544 16.66 21.4944 15 19.4544 15C17.4144 15 15.7544 16.66 15.7544 18.7C15.7544 20.74 17.4144 22.4 19.4544 22.4C20.2044 22.4 20.9044 22.17 21.4844 21.79L22.2244 22.53C22.3744 22.68 22.5644 22.75 22.7544 22.75C22.9444 22.75 23.1344 22.68 23.2844 22.53C23.5744 22.24 23.5744 21.76 23.2844 21.47Z" fill="#33BC51"/>
</svg>
