<svg width="108" height="95" viewBox="0 0 108 95" fill="none" xmlns="http://www.w3.org/2000/svg">
<circle opacity="0.4" cx="88.1587" cy="51.3919" r="19.71" fill="#ACE4B8"/>
<circle opacity="0.4" cx="39.4049" cy="39.7819" r="39.3209" fill="#ACE4B8"/>
<path opacity="0.4" d="M69.4048 34.1719H52.6648C39.4048 34.1719 39.4048 41.2219 39.4048 47.4319V58.8019C39.4048 59.4619 39.7048 60.0619 40.2148 60.4519C40.7248 60.8419 41.4148 60.9919 42.0448 60.8119C43.3948 60.4519 45.0748 60.2719 47.0848 60.2719C49.0948 60.2719 49.5148 60.5119 50.7148 61.4119L53.4448 64.2919C55.3948 66.3919 58.1848 67.5919 61.0648 67.5919C63.9448 67.5919 66.7048 66.3919 68.6848 64.2919L71.4148 61.4119C72.6148 60.5119 73.0348 60.2719 75.0448 60.2719C77.0548 60.2719 78.7348 60.4519 80.0848 60.8119C80.7148 60.9919 81.3748 60.8419 81.9148 60.4519C82.4248 60.0619 82.7248 59.4319 82.7248 58.8019V47.4319C82.6648 41.2219 82.6648 34.1719 69.4048 34.1719Z" fill="#F3C703"/>
<path d="M67.8598 42.5719C67.0798 41.7919 65.7898 41.7919 65.0098 42.5719L63.0598 44.5219V30.1819C63.0598 29.0719 62.1298 28.1719 61.0198 28.1719C59.9098 28.1719 58.9798 29.0719 58.9798 30.1819V44.4919L57.0598 42.5719C56.2798 41.7919 54.9898 41.7919 54.2098 42.5719C53.4298 43.3519 53.4298 44.6419 54.2098 45.4219L59.6098 50.8219C59.6398 50.8519 59.6398 50.8519 59.6698 50.8519C59.8498 51.0019 60.0298 51.1519 60.2698 51.2419C60.5098 51.3319 60.7798 51.3919 61.0498 51.3919C61.3198 51.3919 61.5598 51.3319 61.8298 51.2419C62.0698 51.1519 62.3098 51.0019 62.4898 50.7919L67.8898 45.3919C68.6398 44.6419 68.6398 43.3519 67.8598 42.5719Z" fill="#F3C703"/>
<path d="M81.1047 56.7619C79.3947 56.3119 77.3847 56.0719 74.9847 56.0719C71.6547 56.0719 70.4247 56.8819 68.7147 58.1719C68.6247 58.2319 68.5347 58.3219 68.4447 58.4119L65.5947 61.4419C63.1947 63.9619 58.8747 63.9919 56.4747 61.4119L53.6247 58.4119C53.5347 58.3219 53.4447 58.2319 53.3547 58.1719C51.6447 56.8819 50.4147 56.0719 47.0847 56.0719C44.6847 56.0719 42.6747 56.3119 40.9647 56.7619C33.8247 58.6819 33.8247 64.3519 33.8247 69.3319V72.1219C33.8247 79.6519 33.8247 88.1719 49.8747 88.1719H72.1947C82.8447 88.1719 88.2447 82.7719 88.2447 72.1219V69.3319C88.2447 64.3519 88.2447 58.6819 81.1047 56.7619ZM68.0247 77.3719H54.0447C52.9047 77.3719 51.9747 76.4419 51.9747 75.2719C51.9747 74.1019 52.9047 73.1719 54.0447 73.1719H68.0247C69.1647 73.1719 70.0947 74.1019 70.0947 75.2719C70.0947 76.4419 69.1647 77.3719 68.0247 77.3719Z" fill="#F3C703"/>
<path opacity="0.4" d="M70.0946 75.2719C70.0946 76.4419 69.1646 77.3719 68.0246 77.3719H54.0446C52.9046 77.3719 51.9746 76.4419 51.9746 75.2719C51.9746 74.1019 52.9046 73.1719 54.0446 73.1719H68.0246C69.1646 73.1719 70.0946 74.1019 70.0946 75.2719Z" fill="#F3C703"/>
</svg>
